<svg width="43" height="49" viewBox="0 0 43 49" fill="none" xmlns="http://www.w3.org/2000/svg">
<path d="M2 19.5V11H27.4139C28.1157 11 28.8078 11.2344 29.3029 11.7317C32.5346 14.9775 30.8909 17.7008 29.1696 19.0448C28.7509 19.3717 28.2201 19.5 27.689 19.5H17.5L38.3157 39.8316C38.7609 40.2664 39.0682 40.8322 39.1497 41.4491C40.1217 48.8072 35.5147 49.1132 32.5573 48.1944C32.1848 48.0787 31.8545 47.8618 31.5717 47.5931L2 19.5Z" fill="#4B31FF"/>
<path d="M2 41.5917V23L10 30V41.5917C10 42.1839 9.83452 42.7745 9.46167 43.2347C6.79595 46.5249 4.03948 44.9349 2.55106 43.2206C2.16276 42.7734 2 42.1839 2 41.5917Z" fill="#4B31FF"/>
<path d="M35.5909 0.998231C34.9066 0.332273 33.9751 0 33.0203 0H3C1.34315 0 0 1.34315 0 3V6C0 7.65685 1.34315 9 3 9H28.2918C28.7575 9 29.2219 9.1052 29.6289 9.33163C36.521 13.1661 34.1673 18.878 31.8218 21.6391C31.6137 21.8841 31.4271 22.1483 31.3067 22.4463C29.6264 26.6049 32.5215 28.0906 34.9076 28.4229C35.6089 28.5205 36.3081 28.2489 36.8298 27.7702C47.6984 17.7973 41.1506 6.40909 35.5909 0.998231Z" fill="white"/>
</svg>
